<?xml version="1.0" encoding="utf-8"?>
<!-- Generator: Adobe Illustrator 19.2.1, SVG Export Plug-In . SVG Version: 6.00 Build 0)  -->
<svg version="1.1" id="layer" xmlns="http://www.w3.org/2000/svg" xmlns:xlink="http://www.w3.org/1999/xlink" x="0px" y="0px"
	 viewBox="0 0 652 652" style="enable-background:new 0 0 652 652;" xml:space="preserve">
<style type="text/css">
	.st0{fill:#EE9700;}
	.st1{fill:none;stroke:#EE9700;stroke-width:3.1063;stroke-miterlimit:3.864;}
	.st2{font-family:'ArialMT';}
	.st3{font-size:29.8202px;}
	.st4{fill:none;stroke:#EE9700;stroke-width:6.2125;stroke-miterlimit:3.864;}
</style>
<polygon class="st0" points="449.3,208.9 506.8,208.9 443.4,272.2 376.9,272.2 440.3,208.9 "/>
<polygon class="st1" points="449.3,208.9 506.8,208.9 443.4,272.2 376.9,272.2 440.3,208.9 "/>
<path d="M157.3,285.6h46.6c0,0,9.5,0.6,9.3,10.6c-0.1,8.7-9,10.3-9,10.3h-47.5v26.4h47.2c0,0,8.3,0.2,8.4,11.3c0.1,9.3-9,9.9-9,9.9
	h-46.6v32.3h48.1c0,0,8.7,0.2,8.7,11c0,9.4-9.3,9.5-9.3,9.5h-64.9c-7.8-0.9-7.8-8.1-7.8-8.1V294.3c0.3-9,8.7-8.7,8.7-8.7H157.3"/>
<path d="M248.3,324.4v61.2h39.8c0,0,11.1-0.4,10.9,10.9c-0.2,10.1-9.9,9.9-9.9,9.9h-55c-12.1-0.3-12.1-12.1-12.1-12.1v-97.8
	c0,0,2.2-11.6,13-11.5c11.8,0.1,13.4,12.1,13.4,12.1V324.4"/>
<path d="M331.9,303.3v94.4c0,0-0.1,10.9-14.1,11.3c-12,0.3-12.7-11.8-12.7-11.8v-100c0,0,0.2-12.4,13-12.4
	c12.1,0,13.7,12.7,13.7,12.7V303.3"/>
<path d="M353.3,335l-0.2-37.9c1.2-12.8,12.9-12.1,12.9-12.1s7.1-1.6,13.4,0c12.2,0.1,13.4,12.1,13.4,12.1l20.8,83.2l20.2-82.6
	c1.9-11.5,12.7-12.7,12.7-12.7c5-1.6,15.5,0,15.5,0c11.5,1.6,13,13,13,13v102.3c0,0-2.5,8.5-11.2,8.5c-9.9,0-11.5-8.5-11.5-8.5
	v-84.6l-23.9,84.8c-0.6,6.8-8.1,7.8-8.1,7.8c-5.3,1.2-12.7,0-12.7,0c-7.5,0-10.3-8.1-10.3-8.1l-21.1-84.5v84.6c0,0-1.2,8.5-11.1,8.5
	c-11.7,0-11.9-8.5-11.9-8.5V335"/>
<polygon class="st0" points="541.6,208.9 599,208.9 535.7,272.2 469.2,272.2 532.6,208.9 "/>
<polygon class="st1" points="541.6,208.9 599,208.9 535.7,272.2 469.2,272.2 532.6,208.9 "/>
<text transform="matrix(1.0039 0 0 1 597.7891 304.9961)" class="st2 st3">®</text>
<g>
	<line class="st4" x1="20.3" y1="433.8" x2="608.3" y2="433.8"/>
</g>
<path d="M30.3,286.2v-0.6h52.5c16.2-0.3,32.9,12.1,32.9,28.9c0.3,22.1-18.3,27-18.3,27H46.4v-8.7H79c0,0,10.6-2.2,10.6-12.1
	c0-11.2-9.9-13.7-9.9-13.7H46.4v36H20v-45.4C19.7,288.1,30.3,286.2,30.3,286.2"/>
<path d="M20,341.5h77c0,0,21.7,6.2,21.7,33.2c0,30.1-32.6,32.6-32.6,32.6H45.8v-21.4h32.6c0,0,13.7-2.8,14-14.9
	c0.3-13.4-13.4-17.1-13.4-17.1H47v53.4H30.6C17.8,404.9,20,395.5,20,395.5V341.5"/>
<path d="M545,282.2c24.9-3.1,64.3,12.7,64.3,64.3c0.3,61.5-62.4,65.2-60.6,61.8v-20.5c21.1-1.2,33.2-19.9,33.5-41.9
	c0.3-14.6-5-43.2-37-41.3L545,282.2c-33.5,1.6-56.8,26.4-55.9,64.9c0.6,33.5,21.4,61.5,59.6,62.4v-22.1c-23.3-1.2-30.1-18.6-32-40.4
	c-1.6-20.8,9.6-39.8,28.6-42.6L545,282.2"/>
</svg>
